<?xml version="1.0" encoding="UTF-8" standalone="no"?>
<!-- Created with Inkscape (http://www.inkscape.org/) -->

<svg
   xmlns:dc="http://purl.org/dc/elements/1.1/"
   xmlns:cc="http://creativecommons.org/ns#"
   xmlns:rdf="http://www.w3.org/1999/02/22-rdf-syntax-ns#"
   xmlns:svg="http://www.w3.org/2000/svg"
   xmlns="http://www.w3.org/2000/svg"
   xmlns:sodipodi="http://sodipodi.sourceforge.net/DTD/sodipodi-0.dtd"
   xmlns:inkscape="http://www.inkscape.org/namespaces/inkscape"
   width="1280"
   height="800"
   viewBox="0 0 338.66666 211.66667"
   version="1.1"
   id="svg8"
   inkscape:version="0.92.4 (unknown)"
   sodipodi:docname="all.svg">
  <defs
     id="defs2" />
  <sodipodi:namedview
     id="base"
     pagecolor="#6b6b6b"
     bordercolor="#666666"
     borderopacity="1.0"
     inkscape:pageopacity="0"
     inkscape:pageshadow="2"
     inkscape:zoom="1.979899"
     inkscape:cx="1063.7771"
     inkscape:cy="92.561537"
     inkscape:document-units="px"
     inkscape:current-layer="layer1"
     showgrid="true"
     units="px"
     inkscape:window-width="1853"
     inkscape:window-height="1025"
     inkscape:window-x="67"
     inkscape:window-y="27"
     inkscape:window-maximized="1"
     inkscape:snap-global="false"
     inkscape:snap-object-midpoints="true">
    <inkscape:grid
       type="xygrid"
       id="grid815"
       spacingx="4.2333333"
       spacingy="4.2333333"
       empspacing="2" />
  </sodipodi:namedview>
  <metadata
     id="metadata5">
    <rdf:RDF>
      <cc:Work
         rdf:about="">
        <dc:format>image/svg+xml</dc:format>
        <dc:type
           rdf:resource="http://purl.org/dc/dcmitype/StillImage" />
        <dc:title />
      </cc:Work>
    </rdf:RDF>
  </metadata>
  <g
     inkscape:label="Layer 1"
     inkscape:groupmode="layer"
     id="layer1"
     transform="translate(0,-85.333317)">
    <rect
       style="opacity:1;fill:#ffffff;fill-opacity:1;stroke:none;stroke-width:0.69999999;stroke-linejoin:miter;stroke-miterlimit:4;stroke-dasharray:none;stroke-opacity:1"
       id="rect4520"
       width="4.2333336"
       height="4.2333331"
       x="25.4"
       y="284.29999"
       inkscape:export-xdpi="96"
       inkscape:export-ydpi="96" />
    <rect
       style="opacity:1;fill:#ffffff;fill-opacity:1;stroke:none;stroke-width:0.69999999;stroke-linejoin:miter;stroke-miterlimit:4;stroke-dasharray:none;stroke-opacity:1"
       id="rect4541"
       width="8.4666662"
       height="8.4666662"
       x="42.333332"
       y="280.06665"
       inkscape:export-xdpi="96"
       inkscape:export-ydpi="96" />
    <path
       style="opacity:1;fill:#ffffff;fill-opacity:1;stroke:none;stroke-width:0.69999999;stroke-linejoin:miter;stroke-miterlimit:4;stroke-dasharray:none;stroke-opacity:1"
       d="m 12.7,284.29999 h 4.233333 L 12.7,288.53332 Z"
       id="rect4545"
       inkscape:connector-curvature="0"
       sodipodi:nodetypes="cccc"
       inkscape:export-xdpi="96"
       inkscape:export-ydpi="96" />
    <path
       inkscape:export-ydpi="96.183853"
       inkscape:export-xdpi="96.183853"
       id="path1147"
       d="m 20.754366,265.26593 c 0,5.78796 -8.054366,11.64593 -8.054366,11.64593 0,0 -8.0543669,-5.85797 -8.0543669,-11.64593 0,-3.2813 2.5368072,-4.49173 3.870759,-4.49173 2.7889579,0 4.1836079,2.35912 4.1836079,2.35912 0,0 1.394649,-2.35948 4.183601,-2.35948 1.333958,2.4e-4 3.870765,1.21043 3.870765,4.49209 z"
       inkscape:connector-curvature="0"
       style="fill:#ffffff;fill-opacity:1;stroke:none;stroke-width:1.99999988;stroke-miterlimit:4;stroke-dasharray:none;stroke-opacity:1" />
    <path
       style="fill:#ffffff;stroke:none;stroke-width:0.26458332px;stroke-linecap:butt;stroke-linejoin:miter;stroke-opacity:1"
       d="m 101.6,288.53331 v -12.69999 h -4.233334 l 12.700004,-12.7 12.7,12.7 h -4.23334 v 12.69999 l -4.23333,1e-5 v -8.46667 l -4.23333,0 v 8.46667 z"
       id="path823"
       inkscape:connector-curvature="0"
       inkscape:export-xdpi="96"
       inkscape:export-ydpi="96"
       sodipodi:nodetypes="cccccccccccc" />
    <path
       style="fill:#ffffff;stroke:none;stroke-width:0.99999994px;stroke-linecap:butt;stroke-linejoin:miter;stroke-opacity:1"
       d="M 576 656 L 576 720 L 576 768 L 624 768 L 624 736 L 640 736 L 640 768 L 656 768 L 656 720 L 656 656 L 624 656 L 576 656 z M 592 672 L 608 672 L 608 688 L 592 688 L 592 672 z M 624 672 L 640 672 L 640 688 L 624 688 L 624 672 z M 592 704 L 608 704 L 608 720 L 592 720 L 592 704 z M 624 704 L 640 704 L 640 720 L 624 720 L 624 704 z M 592 736 L 608 736 L 608 752 L 592 752 L 592 736 z "
       transform="matrix(0.26458333,0,0,0.26458333,0,85.333317)"
       id="path825"
       inkscape:export-xdpi="96"
       inkscape:export-ydpi="96" />
    <path
       style="opacity:1;fill:#ffffff;fill-opacity:1;stroke:none;stroke-width:1.99999988;stroke-linejoin:round;stroke-miterlimit:4;stroke-dasharray:none;stroke-opacity:1"
       d="m 736,704 v 16.45117 h 33.69531 v 2.77735 H 736 v 7.22265 h 27.69531 v 2.77735 H 736 v 7.22265 h 19.69531 v 2.77735 H 736 V 768 h 96 v -32 h 16 v 32 h 16 l 6.06092,-71.57614 z m 41.05273,9.62891 c 3.97304,0.028 6.95018,2.22512 6.99024,7.21289 -1.44042,-2.29905 -3.19374,-4.53698 -7.25,-4.82422 1.75967,6.49848 3.54402,13.07534 5.3125,19.54101 0.3761,2.08861 -1.86497,4.23297 -4.99219,4.78516 -3.13602,0.56013 -5.97651,-0.68878 -6.34766,-2.77734 -0.37043,-2.08056 1.86944,-4.23305 5.00391,-4.78516 1.35315,-0.24026 2.71134,-0.15225 3.84766,0.25586 l -5.45117,-19.08984 c 0.99945,-0.21657 1.96965,-0.32592 2.88671,-0.31836 z m 28.85938,0.45507 c 3.64097,-0.028 6.45692,1.97881 6.87305,6.66407 -1.62444,-2.1766 -3.55212,-4.27444 -7.61719,-4.23438 2.2806,6.34568 4.57662,12.75494 6.86523,19.06055 0.53613,2.04854 -1.52075,4.36968 -4.60156,5.16992 -3.07283,0.80818 -6.0088,-0.19927 -6.54492,-2.25586 -0.53613,-2.0485 1.52681,-4.36972 4.59961,-5.16992 1.33636,-0.35187 2.6969,-0.36883 3.86523,-0.0566 l -6.96875,-18.59961 c 1.2243,-0.37066 2.41702,-0.57057 3.5293,-0.57813 z m -12.02734,9.14454 c 5.44146,0.3041 9.26625,3.35947 7.67382,9.28906 -0.76822,-2.60867 -1.86429,-5.23335 -5.69726,-6.59375 -0.0404,6.73784 -0.0903,13.54812 -0.10547,20.2539 -0.20806,2.11257 -2.92859,3.58563 -6.10547,3.27344 -3.15281,-0.29609 -5.56908,-2.25673 -5.36914,-4.36133 0.20005,-2.12054 2.94481,-3.5855 6.09766,-3.28125 1.37635,0.12805 2.66421,0.58526 3.64843,1.27344 z"
       transform="matrix(0.26458333,0,0,0.26458333,0,85.333317)"
       id="rect842"
       inkscape:connector-curvature="0"
       sodipodi:nodetypes="ccccccccccccccccccccccccccccccccccccccccccccccccccc"
       inkscape:export-xdpi="96"
       inkscape:export-ydpi="96" />
    <path
       style="fill:#ffffff;stroke:none;stroke-width:0.26458332px;stroke-linecap:butt;stroke-linejoin:miter;stroke-opacity:1"
       d="M 256.11667,263.13331 247.65,284.82915 H 254 v 3.70416 h 4.23333 v -3.70416 h 6.35 z m -7.89358,4.23334 -7.05538,18.08003 h 4.40955 l 4.85087,-12.43025 z m 15.78715,0 -2.20503,5.64978 4.85086,12.43025 h 4.40956 z m -17.55086,19.13836 v 2.0283 h 3.52743 v -2.0283 z m 15.78663,0 v 2.0283 h 3.52795 v -2.0283 z"
       id="path879"
       inkscape:connector-curvature="0"
       inkscape:export-xdpi="96"
       inkscape:export-ydpi="96" />
    <path
       inkscape:export-ydpi="119.1385"
       inkscape:export-xdpi="119.1385"
       inkscape:connector-curvature="0"
       id="path945"
       d="m 67.733333,280.06665 c -2.178296,0 -3.944153,1.76585 -3.944153,3.94414 0,0.61947 0.146128,1.23021 0.42623,1.78274 1.087131,1.90983 2.347223,3.93513 3.517923,5.86877 1.170697,-1.93364 2.430788,-3.95894 3.517921,-5.86877 0.280103,-0.55254 0.426229,-1.16327 0.426229,-1.78274 0,-2.17829 -1.765855,-3.94414 -3.94415,-3.94414 z"
       style="opacity:0.98000004;fill:#ffffff;fill-opacity:1;stroke:none;stroke-width:5.29166698;stroke-linecap:round;stroke-linejoin:miter;stroke-miterlimit:4;stroke-dasharray:none;stroke-dashoffset:0;stroke-opacity:1" />
    <circle
       style="opacity:1;fill:#808080;fill-opacity:1;stroke:none;stroke-width:0.52916664;stroke-linejoin:round;stroke-miterlimit:4;stroke-dasharray:none;stroke-opacity:1"
       id="path895"
       cx="67.73333"
       cy="284.29999"
       r="1.6441963"
       inkscape:export-xdpi="119"
       inkscape:export-ydpi="119" />
    <path
       style="fill:#ffffff;stroke:none;stroke-width:0.26458332px;stroke-linecap:butt;stroke-linejoin:miter;stroke-opacity:1"
       d="m 283.63333,280.06665 c 0,4.23333 8.46667,4.23333 8.46667,4.23333 0,0 0,4.23334 -4.23334,4.23333 4.23334,1e-5 12.7,0 12.7,0 -4.23333,1e-5 -4.23333,-4.23333 -4.23333,-4.23333 0,0 8.46667,0 8.46667,-4.23333 h -9.525 v -3.17501 h -2.11667 v 3.17501 z"
       id="path897"
       inkscape:connector-curvature="0"
       sodipodi:nodetypes="ccccccccccc"
       inkscape:export-xdpi="119"
       inkscape:export-ydpi="119" />
    <path
       style="fill:#ffffff;stroke:none;stroke-width:0.26458332px;stroke-linecap:butt;stroke-linejoin:miter;stroke-opacity:1"
       d="m 293.68751,275.58274 c 0,0 0,-6.09942 -4.0663,-6.09942 -3.03084,0 -4.06629,4.06628 -4.06629,8.13258 0,0 0,-6.09944 4.06629,-6.09944 4.0663,0 4.0663,4.06628 4.0663,4.06628 z"
       id="path899"
       inkscape:connector-curvature="0"
       sodipodi:nodetypes="csccc"
       inkscape:export-xdpi="119"
       inkscape:export-ydpi="119" />
    <path
       sodipodi:nodetypes="csccc"
       inkscape:connector-curvature="0"
       id="path901"
       d="m 294.55075,275.58274 c 0,0 0,-6.09942 4.0663,-6.09942 3.03084,0 4.06629,4.06628 4.06629,8.13258 0,0 0,-6.09944 -4.06629,-6.09944 -4.0663,0 -4.0663,4.06628 -4.0663,4.06628 z"
       style="fill:#ffffff;stroke:none;stroke-width:0.26458332px;stroke-linecap:butt;stroke-linejoin:miter;stroke-opacity:1"
       inkscape:export-xdpi="119"
       inkscape:export-ydpi="119" />
    <path
       sodipodi:nodetypes="csccc"
       inkscape:connector-curvature="0"
       id="path903"
       d="m 289.07311,268.39752 c 0,0 0,-3.59378 2.39586,-3.59378 1.78577,0 2.39585,2.39585 2.39585,4.79171 0,0 0,-3.59378 -2.39585,-3.59378 -2.39586,0 -2.39586,2.39585 -2.39586,2.39585 z"
       style="fill:#ffffff;stroke:none;stroke-width:0.26458332px;stroke-linecap:butt;stroke-linejoin:miter;stroke-opacity:1"
       inkscape:export-xdpi="119"
       inkscape:export-ydpi="119" />
    <path
       style="fill:#ffffff;stroke:none;stroke-width:0.26458332px;stroke-linecap:butt;stroke-linejoin:miter;stroke-opacity:1"
       d="m 299.16516,268.39752 c 0,0 0,-3.59378 -2.39586,-3.59378 -1.78577,0 -2.39586,2.39585 -2.39586,4.79171 0,0 0,-3.59378 2.39586,-3.59378 2.39586,0 2.39586,2.39585 2.39586,2.39585 z"
       id="path905"
       inkscape:connector-curvature="0"
       sodipodi:nodetypes="csccc"
       inkscape:export-xdpi="119"
       inkscape:export-ydpi="119" />
  </g>
</svg>
